<?xml version="1.0" encoding="UTF-8" standalone="no"?>
<svg
   width="529"
   height="309"
   viewBox="0 0 529 309"
   version="1.1"
   id="svg4"
   xmlns="http://www.w3.org/2000/svg"
   xmlns:svg="http://www.w3.org/2000/svg">
  <defs
     id="defs4" />
  <g
     id="g4">
    <path
       d="M 529,104.86 V 309 H 0 l 260.75,-0.11 c 145.53,-0.06 256.78,-0.47 256.78,-0.94 0,-0.01 -0.01,-0.01 -0.03,-0.02 C 497.53,303.67 335.51,273.9 289,265.96 219.37,254.06 174.05,245.65 154.5,241 c -17.3,-4.11 -30.54,-4.85 -39.75,-2.2 -3.71,1.06 -6.75,1.63 -6.75,1.27 0,-0.87 6.83,-7.32 9.97,-9.42 3.03,-2.02 7.52,-2.04 16.03,-0.08 14.94,3.45 31.45,6.71 65,12.83 19.52,3.56 62.5,11.46 95.5,17.54 33,6.09 63.83,11.77 68.5,12.63 4.67,0.86 11.88,2.21 16,3.01 7.42,1.43 75.57,14.09 123.14,22.87 13.56,2.5 25.15,4.55 25.75,4.55 0.69,0 1.11,-2.3 1.11,-6.06 0,-3.33 -0.34,-5.85 -0.75,-5.6 -0.41,0.25 -5.25,-0.4 -10.75,-1.45 -5.5,-1.05 -14.95,-2.78 -21,-3.84 -31.68,-5.56 -109.96,-19.69 -138,-24.92 C 244,240.8 157.12,224.45 142.48,221.47 c -24.37,-4.97 -25.04,-4.89 -34.25,3.91 -3.48,3.32 -4.6,3.88 -6,3.03 -1.76,-1.08 -3.96,-3.84 -22.02,-27.78 -5.73,-7.58 -11,-13.63 -11.9,-13.63 -0.88,0 -3.77,2.02 -6.41,4.5 -2.65,2.48 -5.62,4.5 -6.61,4.5 -0.98,0 -5.05,-3.57 -9.04,-7.93 -7.01,-7.66 -7.25,-8.1 -7.25,-13 0,-5.76 0.26,-5.88 7.38,-3.46 2.6,0.89 5.01,1.33 5.37,0.98 0.35,-0.35 1.33,-5.2 2.19,-10.78 0.86,-5.58 2.07,-10.31 2.68,-10.52 1.82,-0.6 6.98,4.34 15.43,14.77 4.34,5.36 9.37,10.9 11.17,12.31 4.17,3.27 4.29,2.98 5.18,-13.37 0.81,-14.94 2.52,-34.25 3.07,-34.81 0.41,-0.41 5.58,-0.73 67.03,-4.18 20.35,-1.14 67.82,-3.85 105.5,-6.02 37.67,-2.17 93.25,-5.3 123.5,-6.96 30.25,-1.66 66.92,-3.69 81.5,-4.51 14.58,-0.83 31.67,-1.74 38,-2.04 6.33,-0.29 13.86,-0.78 16.75,-1.08 z m -430.68,7.69 c -25.75,1.82 -50.08,3.58 -54.07,3.92 -4.02,0.34 -7.25,0.22 -7.25,-0.27 0,-0.49 6.19,-4.42 13.75,-8.74 21.41,-12.21 39.94,-23.38 41.1,-24.79 0.76,-0.9 0.63,-2.94 -0.45,-7.06 -0.83,-3.19 -1.37,-6.51 -1.21,-7.37 0.19,-0.98 2.99,-2.44 7.31,-3.82 7.17,-2.3 138.77,-46.77 155,-52.38 12.3,-4.26 26.44,-8.2 27.36,-7.63 2.5,1.55 28.56,49.62 27.43,50.61 -0.44,0.38 -17.44,3.94 -37.79,7.91 -20.35,3.96 -37.79,7.43 -38.75,7.71 -0.96,0.27 -1.75,0.12 -1.75,-0.34 0,-0.99 38.24,-11.02 69.26,-18.16 l 2.76,-0.64 -9.26,-14.72 C 286.67,28.68 280.92,20.23 279,17.99 l -3.5,-4.06 -9.5,2.57 c -5.23,1.42 -28.4,8.38 -51.5,15.47 -49.96,15.34 -82.71,25.27 -102.5,31.07 -7.97,2.34 -14.81,4.41 -15.18,4.62 -0.37,0.2 0.87,4.95 2.75,10.55 1.89,5.61 3.09,10.5 2.68,10.89 -0.81,0.75 -21.94,10.48 -31.75,14.62 -10.09,4.26 -18.88,7.28 -21.19,7.28 -1.2,0 -2.47,0.45 -2.81,1 -0.35,0.56 0.4,0.99 1.69,0.98 6.25,-0.07 91.97,-5.81 92.35,-6.19 0.24,-0.24 -0.67,-3.78 -2.03,-7.86 -1.35,-4.09 -2.47,-7.77 -2.48,-8.18 -0.02,-0.41 1.47,-0.75 3.31,-0.75 3.95,0 4.97,1.69 6.67,11.05 0.75,4.12 0.79,6.55 0.13,7.21 -0.54,0.54 -22.06,2.48 -47.82,4.29 z M 529,86.71 v 7.11 l -3.75,0.57 c -5.2,0.79 -32.48,2.34 -73.25,4.16 -18.98,0.85 -49.8,2.63 -68.5,3.97 -50.74,3.62 -71.63,4.65 -74.99,3.69 -2.25,-0.64 0.83,-1.13 12.5,-2 13.59,-1.01 55.01,-4.49 162.99,-13.69 16.23,-1.38 32.99,-2.8 37.25,-3.16 z M 98.16,242.17 c -0.36,0.37 -2.3,0.98 -4.3,1.34 -3.45,0.64 -3.79,0.45 -6.57,-3.67 -1.61,-2.39 -6.22,-10.41 -10.24,-17.84 -4.01,-7.43 -7.44,-13.66 -7.61,-13.85 -0.17,-0.19 -4.24,2.4 -9.04,5.75 -4.81,3.36 -9.32,6.1 -10.03,6.1 -0.7,0 -3.55,-2.81 -6.32,-6.24 -4.64,-5.72 -5.05,-6.66 -5.05,-11.5 0,-2.89 0.37,-5.26 0.82,-5.26 0.46,0 3.65,2.93 7.1,6.5 3.46,3.57 6.81,6.5 7.46,6.5 1.55,0 5.34,-2.57 9.37,-6.35 2.04,-1.91 3.6,-2.69 4.19,-2.1 3.71,3.75 30.75,40.09 30.22,40.62 z M 79.35,150.75 c -0.34,2.89 -1.05,5.25 -1.57,5.25 -0.51,0 -6.68,-5.92 -13.71,-13.15 -7.02,-7.24 -13.24,-12.86 -13.82,-12.5 -0.58,0.35 -1.37,3.46 -1.76,6.9 -1.03,9.04 -2.15,10.17 -2.87,2.92 -0.34,-3.4 -0.89,-8.87 -1.22,-12.17 -0.34,-3.45 -0.2,-6 0.33,-6 1.65,0 9.71,5.78 17.73,12.72 4.31,3.73 9.09,7.79 10.61,9.04 l 2.76,2.25 1.33,-3 c 2.63,-5.94 3.48,-2.95 2.19,7.74 z"
       fill="#323232"
       id="path1" />
    <path
       d="m 392.59,101.9 c -0.72,0.05 -1.42,0.1 -2.09,0.14 -46.48,3.38 -74.6,4.96 -86,4.83 -10.15,-0.12 -10.54,-0.19 -5,-0.93 3.3,-0.45 12.98,-1.28 21.5,-1.85 13.62,-0.91 46.93,-3.68 163,-13.57 -107.98,9.2 -149.4,12.68 -162.99,13.69 -11.67,0.87 -14.75,1.36 -12.5,2 3.36,0.96 24.25,-0.07 74.99,-3.69 2.79,-0.2 5.84,-0.41 9.09,-0.62 z"
       fill="#787878"
       id="path2" />
    <path
       d="m 58.06,108.59 c -1.57,0.59 -2.88,1.06 -3.84,1.37 -2.35,0.76 -3.93,1.72 -3.5,2.14 0.4,0.39 24.58,-0.84 47.75,-2.22 -22.84,1.53 -47.07,3.06 -50.28,3.1 -1.29,0.01 -2.04,-0.42 -1.69,-0.98 0.34,-0.55 1.61,-1 2.81,-1 1.26,0 4.46,-0.9 8.75,-2.41 z M 84.64,97.47 c 8.66,-3.93 17.1,-7.9 17.61,-8.37 -0.87,0.81 -8.54,4.38 -17.61,8.37 z"
       fill="#aeaeae"
       id="path3" />
    <path
       d="M 0,154.5 V 0 H 264.5 529 v 43.36 43.35 l -7.75,0.65 c -4.26,0.36 -21.02,1.78 -37.25,3.16 -116.07,9.89 -149.38,12.66 -163,13.57 -8.52,0.57 -18.2,1.4 -21.5,1.85 -5.54,0.74 -5.15,0.81 5,0.93 11.4,0.13 39.52,-1.45 86,-4.83 14.85,-1.07 42.52,-2.65 61.5,-3.49 40.71,-1.82 68.04,-3.37 73.25,-4.16 L 529,93.82 v 5.52 5.52 l -5.25,0.54 c -2.89,0.3 -10.42,0.79 -16.75,1.08 -6.33,0.3 -23.42,1.21 -38,2.04 -14.58,0.82 -51.25,2.85 -81.5,4.51 -30.25,1.66 -85.83,4.79 -123.5,6.96 -37.68,2.17 -85.15,4.88 -105.5,6.02 -61.45,3.45 -66.62,3.77 -67.03,4.18 -0.55,0.56 -2.26,19.87 -3.07,34.81 -0.89,16.35 -1.01,16.64 -5.18,13.37 -1.8,-1.41 -6.83,-6.95 -11.17,-12.31 -8.45,-10.43 -13.61,-15.37 -15.43,-14.77 -0.61,0.21 -1.82,4.94 -2.68,10.52 -0.86,5.58 -1.84,10.43 -2.19,10.78 -0.36,0.35 -2.77,-0.09 -5.37,-0.98 -7.12,-2.42 -7.38,-2.3 -7.38,3.46 0,4.9 0.24,5.34 7.25,13 3.99,4.36 8.06,7.93 9.04,7.93 0.99,0 3.96,-2.02 6.61,-4.5 2.64,-2.48 5.53,-4.5 6.41,-4.5 0.9,0 6.17,6.05 11.9,13.63 18.06,23.94 20.26,26.7 22.02,27.78 1.4,0.85 2.52,0.29 6,-3.03 9.21,-8.8 9.88,-8.88 34.25,-3.91 14.64,2.98 101.52,19.33 216.02,40.66 28.04,5.23 106.32,19.36 138,24.92 6.05,1.06 15.5,2.79 21,3.84 5.5,1.05 10.34,1.7 10.75,1.45 0.41,-0.25 0.75,2.27 0.75,5.6 0,3.76 -0.42,6.06 -1.11,6.06 -0.6,0 -12.19,-2.05 -25.75,-4.55 -47.57,-8.78 -115.72,-21.44 -123.14,-22.87 -4.12,-0.8 -11.33,-2.15 -16,-3.01 -4.67,-0.86 -35.5,-6.54 -68.5,-12.63 -33,-6.08 -75.98,-13.98 -95.5,-17.54 -33.55,-6.12 -50.06,-9.38 -65,-12.83 -8.51,-1.96 -13,-1.94 -16.03,0.08 -3.14,2.1 -9.97,8.55 -9.97,9.42 0,0.36 3.04,-0.21 6.75,-1.27 9.21,-2.65 22.45,-1.91 39.75,2.2 19.55,4.65 64.87,13.06 134.5,24.96 46.51,7.94 208.53,37.71 228.5,41.97 2.25,0.48 -109.76,0.9 -256.75,0.96 L 0,309 Z m 98.16,87.67 c 0.53,-0.53 -26.51,-36.87 -30.22,-40.62 -0.59,-0.59 -2.15,0.19 -4.19,2.1 -4.03,3.78 -7.82,6.35 -9.37,6.35 -0.65,0 -4,-2.93 -7.46,-6.5 -3.45,-3.57 -6.64,-6.5 -7.1,-6.5 -0.45,0 -0.82,2.37 -0.82,5.26 0,4.84 0.41,5.78 5.05,11.5 2.77,3.43 5.62,6.24 6.32,6.24 0.71,0 5.22,-2.74 10.03,-6.1 4.8,-3.35 8.87,-5.94 9.04,-5.75 0.17,0.19 3.6,6.42 7.61,13.85 4.02,7.43 8.63,15.45 10.24,17.84 2.78,4.12 3.12,4.31 6.57,3.67 2,-0.36 3.94,-0.97 4.3,-1.34 z M 79.35,150.75 c 1.29,-10.69 0.44,-13.68 -2.19,-7.74 l -1.33,3 -2.76,-2.25 c -1.52,-1.25 -6.3,-5.31 -10.61,-9.04 C 54.44,127.78 46.38,122 44.73,122 c -0.53,0 -0.67,2.55 -0.33,6 0.33,3.3 0.88,8.77 1.22,12.17 0.72,7.25 1.84,6.12 2.87,-2.92 0.39,-3.44 1.18,-6.55 1.76,-6.9 0.58,-0.36 6.8,5.26 13.82,12.5 7.03,7.23 13.2,13.15 13.71,13.15 0.52,0 1.23,-2.36 1.57,-5.25 z m 18.97,-38.2 c 25.76,-1.81 47.28,-3.75 47.82,-4.29 0.66,-0.66 0.62,-3.09 -0.13,-7.21 -1.7,-9.36 -2.72,-11.05 -6.67,-11.05 -1.84,0 -3.33,0.34 -3.31,0.75 0.01,0.41 1.13,4.09 2.48,8.18 1.36,4.08 2.27,7.62 2.03,7.87 -0.85,0.84 -89.05,6.05 -89.82,5.3 -0.43,-0.42 1.15,-1.38 3.5,-2.14 8.73,-2.8 46.04,-19.01 48.03,-20.86 0.41,-0.39 -0.79,-5.28 -2.68,-10.89 -1.88,-5.6 -3.12,-10.35 -2.75,-10.55 0.37,-0.21 7.21,-2.28 15.18,-4.62 19.79,-5.8 52.54,-15.73 102.5,-31.07 23.1,-7.09 46.27,-14.05 51.5,-15.47 l 9.5,-2.57 3.5,4.06 c 1.92,2.24 7.67,10.69 12.76,18.79 l 9.26,14.72 -2.76,0.64 C 267.24,59.28 229,69.31 229,70.3 c 0,0.46 0.79,0.61 1.75,0.34 0.96,-0.28 18.4,-3.75 38.75,-7.71 20.35,-3.97 37.35,-7.53 37.79,-7.91 1.13,-0.99 -24.93,-49.06 -27.43,-50.61 -0.92,-0.57 -15.06,3.37 -27.36,7.63 -16.23,5.61 -147.83,50.08 -155,52.38 -4.32,1.38 -7.12,2.84 -7.31,3.82 -0.16,0.86 0.38,4.18 1.21,7.37 1.08,4.12 1.21,6.16 0.45,7.06 -1.16,1.41 -19.69,12.58 -41.1,24.79 -7.56,4.32 -13.75,8.25 -13.75,8.74 0,0.49 3.23,0.61 7.25,0.27 3.99,-0.34 28.32,-2.1 54.07,-3.92 z"
       fill="#fefefe"
       id="path4" />
  </g>
</svg>
